<svg xmlns="http://www.w3.org/2000/svg" xmlns:xlink="http://www.w3.org/1999/xlink" id="Layer_1" x="0px" y="0px" viewBox="0 0 300 73.3" style="enable-background:new 0 0 300 73.3;" xml:space="preserve"><style type="text/css">	.st0{fill:#020202;}</style><g id="_x23_020202ff">	<path class="st0" d="M0-0.4c1.9,0,3.8,0,5.7,0C7-0.4,8.3,0,9.4,0.7c0.9,0.5,1.5,1.4,2.2,2.1c-0.1,0-0.2,0-0.3,0  c0.1,0,0.2,0.1,0.3,0.1c0.1,0.3,0.3,0.5,0.4,0.7c0.6,1.5,1.3,3,1.9,4.6c0.1,0,0.2,0.1,0.2,0.2l-0.2,0c0.1,0,0.2,0.1,0.2,0.1  c1.1,2.6,2.2,5.3,3.4,7.9c0.7,1.8,1.5,3.5,2.2,5.2c0.5,1.4,1.2,2.7,1.8,4.1c0.5,1.2,1,2.4,1.5,3.6c0.1,0.3,0.3,0.6,0.4,0.9  c-0.2,0.2,0,0.5,0.2,0.7c0-0.1,0.1-0.2,0.1-0.3c0.3,1.2,0.9,2.4,1.4,3.6c0.1-0.3,0.2-0.5,0.1-0.8c0-11.3,0-22.7,0-34  c4.8,0,9.7,0,14.5,0c0,24.2,0,48.3,0,72.5c-2.7,0-5.3,0-8,0c-2,0.1-3.9-0.9-5.1-2.4c-0.9-1-1.2-2.2-1.8-3.4  c-0.9-2.2-1.8-4.4-2.8-6.6c-0.1-0.3-0.2-0.6-0.2-0.9c-0.1,0.1-0.1,0.1-0.2,0.2c-0.1-0.2-0.1-0.4-0.1-0.5c0,0,0-0.1,0-0.1  c-0.5-0.8-0.8-1.8-1.2-2.6c-1.9-4.5-3.9-8.9-5.8-13.4c-0.8-1.6-1.4-3.4-2.2-5c-0.1-0.2-0.1-0.4-0.2-0.6c0,0.3-0.1,0.6-0.1,0.9  c0,11.4,0,22.9,0,34.3c-4,0-7.9,0-11.9,0V-0.4z"></path>	<path class="st0" d="M48.6-0.4c11.2,0,22.3,0,33.5,0c0,2.5,0,5,0,7.5c0,0.6-0.2,1.2-0.3,1.8c-0.3,0.6-0.5,1.1-0.9,1.6  c-0.6,0.7-1.3,1.2-2.1,1.6c-0.7,0.4-1.5,0.5-2.3,0.5c-4.4,0-8.8,0-13.3,0c-0.1,5.4,0,10.9,0,16.4c5.3,0,10.5,0,15.8,0  c0.2,0,0.5-0.1,0.5,0.3c0,2.5,0,5,0,7.5c0,0.4,0,0.9-0.1,1.3c-0.2,0.4-0.3,0.9-0.5,1.3c-0.4,0.7-0.9,1.2-1.5,1.7  c-0.1,0.1-0.2,0.2-0.2,0.2c-0.1,0-0.2,0-0.3,0c-0.1,0.3-0.5,0.2-0.7,0.4c-0.3,0.1-0.7,0.1-1,0.3c-2.4,0.1-4.8,0-7.2,0  c-1.5,0-3.1,0-4.6,0c-0.1,3.2,0,6.5,0,9.7c0,2.4,0,4.8,0,7.2c6.3,0,12.6,0,18.9,0c0,4.3,0,8.7,0,13c-7,0-14,0-21,0  c-1.2,0-2.5,0-3.7-0.1c-0.7-0.2-1.3-0.3-2-0.6c-0.7-0.3-1.3-0.7-2-1c-0.6-0.5-1.1-0.9-1.7-1.4c-0.6-0.8-1.4-1.5-1.8-2.5  c-0.1-0.1-0.2-0.2-0.2-0.2c0-0.1,0-0.2,0-0.3c-0.4-0.5-0.4-1.2-0.7-1.7c0-0.2-0.1-0.4-0.1-0.6c-0.3-0.4-0.1-1-0.2-1.4  C48.6,41.3,48.7,20.4,48.6-0.4z"></path>	<path class="st0" d="M90.6-0.4c4.8,0,9.7,0,14.5,0c0,17.9,0,35.9,0,53.8c0,0.6,0,1.2,0.1,1.8c0.2,0.6,0.4,1.2,0.5,1.8  c0-0.1,0.1-0.3,0.1-0.4c0.1,0.5,0.4,1,0.7,1.4c0.4,0.3,0.7,0.7,1.2,0.9c1.2,0.8,2.7,0.9,4.1,0.8c0.8,0,1.7-0.3,2.4-0.7  c1-0.6,1.8-1.5,2.3-2.6c0.4-0.9,0.4-1.9,0.6-2.9c0-15.6,0-31.2,0-46.7c0-0.5,0.1-1.1,0.2-1.6c0.2-0.4,0.3-0.9,0.6-1.4  c0.1-0.2,0.2-0.4,0.3-0.6c0.4-0.6,0.8-1.1,1.3-1.6c1.5-1.2,3.3-2.1,5.2-2c2.3,0,4.6,0,6.9,0c0.1,0.3,0,0.7,0.1,1.1  c0,17.1,0,34.2,0,51.3c0,0.6,0,1.2-0.1,1.8c-0.1,0.7,0,1.5-0.1,2.2c-0.1,0.4-0.2,0.8-0.2,1.3c-0.2,0.4-0.2,0.9-0.3,1.3  c-0.3,0.4-0.2,0.9-0.4,1.3c-0.2,0.4-0.4,0.8-0.4,1.2c-0.3,0.1-0.2,0.5-0.3,0.8c-0.2,0.3-0.4,0.7-0.5,1c-0.1,0.2-0.2,0.4-0.3,0.6  c-0.4,0.4-0.6,0.9-0.9,1.3c-0.4,0.7-1,1.3-1.6,1.9c-0.6,0.7-1.3,1.2-2,1.8c-1,0.8-2.1,1.5-3.2,2.1c-0.3,0.2-0.6,0.3-0.9,0.4  c-0.3,0.2-0.7,0.1-0.9,0.4c-0.2,0.1-0.6,0-0.7,0.3c-0.3,0-0.5,0.1-0.8,0.2c-0.3,0.1-0.7,0.1-1,0.3c-0.3,0.1-0.6,0.1-0.9,0.2  c-0.5,0.3-1.1,0.1-1.6,0.4c-1.7,0.1-3.5,0.1-5.3,0.1c-0.6,0-1.3,0.1-1.9-0.2c0.3,0,0.5-0.1,0.8-0.1c-0.7,0-1.5,0.1-2.2-0.2  c-0.3-0.2-0.8,0-1-0.3c-0.2,0-0.4-0.1-0.6-0.1c-0.2-0.3-0.5-0.2-0.7-0.3c-0.1-0.1-0.2-0.2-0.4-0.3c0,0.1,0,0.2,0,0.3  c0-0.1-0.1-0.2-0.2-0.2c-0.9-0.3-1.8-0.8-2.7-1.2c-0.3-0.2-0.7-0.4-1-0.7c-1.1-0.7-2.1-1.5-3-2.5c-0.9-0.8-1.6-1.7-2.3-2.7  c-0.2-0.3-0.4-0.5-0.5-0.8c-0.5-0.9-1-1.8-1.3-2.8c-0.2-0.1-0.2-0.4-0.3-0.6c-0.2-0.2-0.1-0.7-0.5-0.7c0.1,0,0.2,0,0.3-0.1  c-0.1-0.1-0.2-0.2-0.3-0.4c0-0.2,0-0.5,0-0.7c0,0.1-0.1,0.3-0.2,0.4c-0.1-0.6,0-1.2-0.3-1.7c0-1.1-0.4-2.2-0.3-3.4  C90.6,35.7,90.6,17.7,90.6-0.4z"></path>	<path class="st0" d="M140.3-0.3c0.2,0,0.4-0.1,0.6-0.1c6.3,0,12.6,0,18.9,0c1.7,0,3.4-0.1,5.1,0.1c0,0,0.1,0.1,0.2,0.1  c0.6,0.1,1.3,0,1.9,0.2c0.3,0.1,0.7,0.1,1.1,0.2c0.7,0.3,1.5,0.4,2.2,0.6c1.1,0.4,2.2,0.7,3.1,1.5c0.5,0.1,0.9,0.5,1.3,0.8  c0.1,0,0.2-0.1,0.2-0.2c0,0.1,0.1,0.3,0.1,0.4c1.2,1,2.2,2.1,3.1,3.4c0.1,0.2,0.1,0.3,0.2,0.5c0.1,0.2,0.3,0.3,0.4,0.5  c0.5,1.1,1,2.2,1.3,3.4c0,0,0.1,0.1,0.1,0.2c0.1,0.6,0.3,1.1,0.4,1.6c0,0,0.1,0.1,0.1,0.2c0.1,0.6,0.1,1.3,0.3,1.9  c0.1,1.5,0.4,3,0.3,4.5c0,2.1,0,4.2,0,6.3c0,0.6-0.2,1.3-0.3,1.9c0,0.3,0,0.7-0.2,1c-0.1,0.8-0.4,1.6-0.5,2.4  c-0.3,0.4-0.3,1-0.5,1.4c-0.3,0.2-0.1,0.8-0.4,1c-0.2,0.9-0.8,1.8-1.3,2.6c-0.3,0.3-0.5,0.8-0.9,1c0.1,0,0.2,0,0.2,0  c-0.4,0.4-0.7,0.8-1.1,1.2c-0.4,0.4-0.8,0.7-1.1,1.1c0-0.1-0.1-0.2-0.1-0.3c-0.1,0.5-0.7,0.7-1,1c-0.3,0.1-0.6,0.3-0.9,0.5  c0,0.7,0.4,1.4,0.6,2.1c0.2,0.5,0.3,1,0.5,1.5c0.2,0.6,0.4,1.3,0.6,1.9c0.1,0.2,0,0.6,0.3,0.7c0.2,0.7,0.4,1.3,0.6,1.9  c0.1,0.1,0.1,0.2,0.1,0.3c0.3,1.3,0.9,2.5,1.2,3.8c0.1,0.3,0.2,0.6,0.3,1c0.2,0.2,0.2,0.5,0.3,0.8c0.2,0.2,0.2,0.6,0.3,0.9  c0.3,0.5,0.4,1.2,0.6,1.7c0.2,0.6,0.3,1.2,0.7,1.8c0,0.1,0,0.3,0.1,0.4c0.2,0.6,0.5,1.2,0.6,1.8c0.3,0.4,0.4,1,0.5,1.5  c0.3,0.3,0.2,0.8,0.4,1.2c0.2,0.5,0.4,0.9,0.4,1.4c0,0,0.1,0.1,0.2,0.1c0.3,0.5,0.2,1.2,0.6,1.6c0.1,0.3,0,0.7,0.3,0.9  c0.2,0.5,0.3,1.1,0.6,1.6c0.1,0.3,0.2,0.6,0.3,0.9c0.2,0.5,0.3,1.1,0.6,1.6c-0.6,0.2-1.1,0.1-1.7,0.1c-2.2,0-4.5,0-6.7,0  c-0.8,0-1.7,0-2.5-0.1c-0.3-0.2-0.7-0.2-1-0.3c-2.1-0.8-3.8-2.4-4.7-4.4c0-0.1-0.1-0.3-0.1-0.4c-0.1,0-0.2-0.1-0.3-0.1  c0.1,0,0.3,0,0.3,0c-0.1,0-0.2-0.1-0.2-0.2c-0.3-1.1-0.7-2.1-0.9-3.3c0-0.1-0.1-0.2-0.2-0.3c0-0.5-0.4-1-0.4-1.5  c-0.3-0.3-0.2-0.8-0.4-1.1c-0.1-0.3-0.2-0.6-0.3-0.9c0-0.1-0.1-0.3-0.1-0.4c-0.4-0.2-0.1-0.9-0.5-1.2c-0.1-0.9-0.5-1.6-0.7-2.5  c-0.1-0.3-0.3-0.6-0.3-0.9c-0.1-0.4-0.1-0.8-0.3-1.1c-0.2-0.9-0.6-1.8-0.8-2.8c0,0.2,0,0.4,0,0.6c-0.2-0.5-0.2-0.9-0.2-1.4  c-0.1,0.1-0.2,0.1-0.2,0.3c0-0.1,0-0.4,0-0.5c-0.1,0-0.2-0.1-0.3-0.2c0.1,0,0.2,0,0.3,0c-0.1-0.1-0.2-0.3-0.3-0.4  c-0.1-0.3,0-0.7-0.3-0.9c0-0.2-0.1-0.4-0.1-0.6c-0.2-0.2-0.2-0.4-0.2-0.6c-0.3-1-0.6-2-1-3c-2.1-0.1-4.2,1.5-4.6,3.6  c-0.1,0.2-0.1,0.4-0.1,0.6c0,7.9,0,15.8,0,23.7c0,0-0.1,0.1-0.1,0.2c-4.4,0-8.7,0-13.1,0c-0.5,0-0.9,0-1.4-0.1  c0-23.8,0-47.5,0-71.3C140.3,0.4,140.3,0,140.3-0.3 M154.9,12.6c0,0.9,0,1.8,0,2.7c0,5.2,0,10.3,0,15.5c2.2,0,4.4,0,6.6,0  c0.7,0,1.4-0.3,2.1-0.5c0.2-0.1,0.3-0.2,0.5-0.3c0.5-0.4,1-0.9,1.4-1.4c0.3-0.5,0.5-1.1,0.8-1.7c0.1-0.9,0.4-1.8,0.3-2.8  c0-1.7,0-3.3,0-5c0-0.9-0.2-1.7-0.3-2.6c0-0.2-0.2-0.1-0.2,0c0-0.3,0-0.5,0-0.8c-0.2-0.2-0.3-0.4-0.3-0.6c-0.6-0.9-1.4-1.8-2.5-2.2  c-0.3-0.1-0.6-0.2-0.9-0.3c0,0,0.1-0.1,0.1-0.1C159.9,12.6,157.4,12.6,154.9,12.6z"></path>	<path class="st0" d="M218.2,0.7c0.3-0.4,0.6-0.7,1-1c0.6-0.2,1.3-0.1,2,0c0.2,0.2,0.4,0.4,0.6,0.6c0,0-0.1,0-0.2,0l0.1,0  c0,0.2,0.1,0.4,0.3,0.5c0.1,0.8,0,1.7,0.1,2.5c0.2,0.7,0.1,1.3,0.1,2c0.1,0,0.2,0,0.3,0c0.6-0.5,1.2-1,1.8-1.5  c0.1,0,0.2-0.1,0.2-0.2c0.5-0.4,1.1-0.8,1.5-1.3c0.4-0.2,0.7-0.5,1-0.8c0.2-0.2,0.4-0.4,0.6-0.5c0.2-0.1,0.4-0.2,0.5-0.3  c0.5-0.2,1.1-0.2,1.7,0c0.4,0.4,1,0.8,1,1.5c0,0.5,0.1,1-0.2,1.4c-0.2,0.3-0.5,0.6-0.8,0.8c-0.5,0.4-1.1,0.8-1.6,1.4  C228.1,6,228,6,227.9,6.1c-0.6,0.6-1.2,1.1-1.9,1.6c-0.4,0.3-0.7,0.7-1.1,1c-0.6,0.4-1.1,0.9-1.7,1.4c-0.5,0.3-0.9,0.7-1.2,1.2  c0,2,0,4,0,5.9c0.2,0,0.4,0,0.7,0c0.5,0.2,1.1,0.3,1.6,0.3c0.7,0.3,1.4,0.4,2.1,0.6c0.2,0.1,0.4,0.2,0.6,0.3c0.7,0.3,1.3,0.6,2,0.9  c0.2,0.1,0.5,0.2,0.6,0.4c0.1,0,0.3,0,0.3,0c0,0.1,0.1,0.2,0.2,0.3c0.2,0,0.3,0,0.5,0.1c-0.1,0.1-0.1,0.2-0.2,0.3  c0.1,0,0.3-0.1,0.4-0.1c0,0.1,0,0.2,0.1,0.3c0.5,0.1,0.9,0.6,1.3,0.9c0-0.2,0.3-0.7-0.2-0.6c-0.1-0.4,0.1-0.9-0.2-1.2  c-0.1-0.6,0-1.3-0.2-1.9c-0.2-0.6-0.1-1.2-0.1-1.7c-0.1,0.1-0.2,0.2-0.2,0.3c-0.1-1.1-0.1-2.3,0-3.4c0.3,0,0.2-0.4,0.3-0.6  c0.3-0.2,0.3-0.6,0.6-0.9c0.3-0.5,0.7-1,0.9-1.6c0.1-0.2,0.3-0.4,0.4-0.6c0-0.2,0.1-0.3,0.3-0.4c0.1-0.5,0.5-0.8,0.6-1.3  c0,0,0.1-0.1,0.2-0.1c0.1-0.2,0.1-0.4,0.3-0.6c0-0.1,0-0.2,0.1-0.3c0.5-0.7,0.8-1.5,1.5-2.1c0.3-0.1,0.6-0.1,0.8-0.2  c-0.1,0-0.4,0-0.3-0.2c0.4,0,0.8,0.1,1.2,0c-0.1,0.1-0.2,0.1-0.3,0.2c0.6,0.1,1.1,0.4,1.5,0.8c0,0.2,0.1,0.4,0.3,0.5  c0,0.3,0,0.6,0,0.9c-0.1,0.1-0.2,0.2-0.2,0.2c0,0.4-0.2,0.7-0.5,1c-0.2,0.4-0.3,0.8-0.6,1.1c0,0.2-0.2,0.4-0.3,0.6  c0,0.1,0,0.2-0.1,0.3c-0.2,0.3-0.4,0.6-0.6,0.9c0.2,0.1,0.4,0,0.5-0.1c0.6-0.1,1.2-0.1,1.8-0.2c0,0,0.1-0.1,0.1-0.1  c0.6-0.1,1.2,0,1.8-0.1c0,0,0.1-0.1,0.1-0.2c0.6-0.1,1.2,0,1.8-0.1c0,0,0.1-0.1,0.1-0.2c0.6,0,1.3-0.2,1.9,0.1  c0.2,0.2,0.4,0.2,0.6,0.4c0.3,0.7,0.7,1.5,0.3,2.2c-0.1,0.4-0.5,0.7-0.9,1c-0.1,0-0.3,0-0.4,0c0,0.1-0.1,0.2-0.2,0.3  c-0.9-0.1-1.8,0.3-2.7,0.3c0,0-0.1,0.1-0.1,0.1c-0.5,0.1-1,0.1-1.5,0.1c0,0,0,0.1,0,0.2c-0.3,0-0.6,0.1-0.9,0.1  c0.1-0.1,0.2-0.2,0.4-0.3c-0.2,0-0.4,0.1-0.5,0.2c-0.2,0-0.5,0-0.7,0c0.2,0.1,0.4,0.1,0.7,0.2c-0.6,0.1-1.3,0.1-1.9,0.1  c-0.1,0.2-0.4,0.2-0.6,0.3c0.1-0.1,0.2-0.2,0.3-0.3c-0.1,0.1-0.3,0.2-0.4,0.3c-0.3,0-0.7,0-1,0c0,0.1,0,0.2,0,0.2  c-0.1,0-0.2,0-0.2,0c0-0.1-0.1-0.2-0.1-0.3c-0.2,0.6,0.2,1.2,0.2,1.8c0,0.5,0.2,1,0.3,1.5c0,0.8,0.4,1.4,0.3,2.2  c0.3,0.1,0.2,0.5,0.2,0.7c0,0.5,0.4,1,0.3,1.5c0.3,0.1,0.2,0.5,0.3,0.7c0.8,0,1.4-0.5,2.1-0.8c0.2-0.1,0.3-0.2,0.5-0.4  c0.2,0,0.4-0.1,0.5-0.3c0.1,0,0.3,0,0.3,0c0.1-0.1,0.2-0.2,0.2-0.3c0.1,0,0.3,0,0.3,0c0.1-0.2,0.3-0.3,0.5-0.3  c0.1-0.1,0.3-0.2,0.4-0.4c0.3-0.1,0.6-0.3,1-0.5c0.2-0.1,0.4-0.3,0.7-0.4c0.7-0.4,1.5-0.8,2.2-1.3c0.2-0.1,0.4-0.2,0.5-0.3  c0.7-0.4,1.5-0.8,2.3-1.2c0.1,0,0.2-0.1,0.2-0.2c0.7-0.4,1.6-0.4,2.3,0.1c0.4,0.5,0.9,1,0.9,1.7c0,0.9-0.8,1.5-1.4,1.9  c-0.3,0.1-0.7,0.3-0.8,0.6c-0.1-0.1-0.2-0.1-0.3-0.2c-0.1,0.1-0.2,0.3-0.3,0.4c-0.4,0.1-0.7,0.3-1,0.5c0.1,0,0.2,0.1,0.2,0.1  c-0.1,0-0.3,0-0.4,0c-0.2,0.1-0.3,0.3-0.4,0.5c0.4,0.2,0.9,0.4,1.3,0.4c0.1,0.2,0.3,0.2,0.5,0.3c0.6,0.1,1,0.5,1.6,0.5  c0.1,0.3,0.4,0.2,0.6,0.3c0.1,0.1,0.2,0.2,0.2,0.2c0.2,0.1,0.6-0.1,0.7,0.3c0.2,0.1,0.6,0,0.7,0.3c0.4,0.1,0.7,0.2,1.1,0.4  c0.3,0.3,0.8,0.6,0.9,1.1c0,0.5,0.1,1.1-0.2,1.6c-0.5,0.8-1.7,1.4-2.6,0.8c-0.2,0-0.3,0-0.5-0.1c-0.1-0.3-0.5-0.2-0.7-0.3  c-0.1-0.1-0.2-0.2-0.2-0.2c-0.3-0.1-0.7,0.1-0.7-0.3c-0.2,0-0.5,0-0.7-0.2c-0.5-0.2-1-0.4-1.5-0.6c-0.3-0.1-0.6-0.1-0.8-0.3  c-0.2,0-0.3,0-0.5-0.1c0,0-0.1-0.1-0.1-0.2c-0.5-0.1-1-0.3-1.5-0.4c0-0.1-0.1-0.2-0.1-0.2c-0.2,0-0.4,0-0.6-0.1  c-0.1-0.4-0.7-0.2-0.9-0.5c-0.6-0.1-1.2-0.2-1.7,0.2c-0.6,0.5-1.3,0.9-2,1.3c-0.5,0.2-0.9,0.6-1.5,0.7c0,0.1-0.1,0.2-0.2,0.2  c-0.2,0.1-0.5,0.1-0.7,0.2c0,0.2-0.1,0.5,0.2,0.6c0,0.5,0.4,0.9,0.5,1.4c0.1,0.3,0,0.7,0.3,1c0.1,0.3-0.1,0.8,0.3,0.9  c0,0.4,0,0.8,0.1,1.2c0.3,0.1,0.2,0.5,0.2,0.7c0,1.5,0,2.9,0,4.4c-0.4,0-0.1,0.4-0.1,0.7c0.2-0.3,0.4-0.5,0.7-0.7  c0.1-0.1,0.2-0.3,0.4-0.4c0.1-0.1,0.2-0.1,0.4-0.2c1-1,2.2-1.7,3.2-2.6c0,0,0.1,0,0.1-0.1c0.3-0.4,0.8-0.4,1.2-0.7  c0.2-0.1,0.5-0.1,0.6-0.3c2-0.2,3.9,0.1,5.9-0.1c1.3,0,2.6,0,4,0.1c0.1,0.2,0.3,0.2,0.5,0.3c0.1,0.1,0.2,0.2,0.3,0.3  c0.1,0.1,0.2,0.2,0.3,0.3c0.1,0.6,0.1,1.3,0,1.9c-0.1,0.2-0.2,0.3-0.3,0.4c-0.2,0.2-0.4,0.3-0.7,0.4c-0.1,0.2-0.4,0.2-0.5,0.2  c-1,0-2.1,0.1-3.1,0.1c-0.4,0.1-0.7,0.2-1.1,0.2c0,0.1,0,0.2,0,0.2c0.5,0.5,0.8,1.1,1.3,1.6c0.8,1,1.6,2.1,2.5,3.1  c0.3,0.3,0.5,0.7,0.8,1c0.2,0.8,0.3,1.8-0.4,2.3c-0.2,0.3-0.7,0.3-0.9,0.6c-0.3,0-0.6,0-0.9,0c-0.2-0.3-0.6-0.3-0.9-0.5  c-0.7-0.6-1.3-1.3-1.7-2.1c0,0.1,0,0.2,0,0.2c-0.3-0.5-0.8-1-1.2-1.4c-0.8-1-1.7-2.1-2.6-3.1c-0.3-0.4-0.6-0.9-1-1.2  c-0.6,0.4-1.1,1.1-1.8,1.4c-0.4,0.3-0.7,0.7-1.1,0.9c0.1,0,0.1,0,0.2,0c-1.1,0.6-1.8,1.6-2.8,2.3c-0.3,0.3-0.6,0.6-0.8,0.9  c0,0.1,0.1,0.3,0.2,0.3c0.7,0.5,1.4,0.9,2.1,1.4c0.2,0.1,0.3,0.1,0.5,0.3c0.6,0.4,1.3,0.7,1.9,1.1c0.2,0,0.3,0.1,0.5,0.1  c-0.1,0-0.2,0.1-0.3,0.2c0.2,0,0.3,0,0.5,0c0.1,0.1,0.2,0.2,0.2,0.3c0.1,0,0.2,0,0.3,0c0.1,0.3,0.5,0.3,0.7,0.5  c0.3,0.2,0.6,0.4,0.9,0.5c0.6,0.3,1.1,0.7,1.7,0.9c0,0.1,0.1,0.2,0.2,0.2c0.2,0,0.4,0.1,0.5,0.2c0.2,0.2,0.5,0.3,0.7,0.4  c0.6,0.3,1.2,0.6,1.6,1.1c0.1,0.2,0.1,0.5,0.3,0.6c0,0.4,0,0.8,0,1.2c-0.3,0.1-0.3,0.3-0.3,0.6c-0.4,0.4-0.9,0.9-1.5,0.9  c-0.7,0.1-1.3-0.4-1.9-0.6c0,0-0.1-0.1-0.1-0.2c-0.1,0-0.2,0-0.3,0c-0.7-0.6-1.5-0.8-2.2-1.3c-0.1,0-0.3,0-0.4,0.1  c0.1,0,0.2,0.1,0.2,0.1c0,0.5,0,1,0.1,1.5c0.2,0.5,0.1,1,0.2,1.5c0.2,0.4,0.1,0.9,0.2,1.4c0.1,0.5,0.2,0.9,0.2,1.4  c0,0.4,0.2,0.8,0.2,1.2c0,0.5-0.2,0.9-0.2,1.3c0-0.1-0.1-0.2-0.2-0.2c0,0.1,0,0.3,0,0.4c-0.2,0.1-0.3,0.2-0.4,0.3  c-0.2,0.1-0.5,0-0.6,0.3c-0.4,0-0.9,0.1-1.3-0.1c-0.4-0.2-0.7-0.5-1-0.8c0-0.1-0.1-0.2-0.1-0.4c-0.4-0.4-0.2-1.1-0.4-1.6  c-0.3-0.5,0-1.1-0.4-1.5c0-0.6-0.1-1.3-0.3-1.8c0-0.8-0.4-1.5-0.3-2.4c-0.2-0.6-0.2-1.3-0.3-1.9c-0.3-0.4-0.1-1-0.3-1.5  c-0.1-0.1-0.2-0.2-0.3-0.3c-0.3-0.2-0.6-0.4-1-0.5c-0.2,0-0.3-0.1-0.4-0.3c-0.5-0.1-0.8-0.5-1.2-0.7c-0.5-0.2-1-0.6-1.6-0.8  c-0.2-0.3-0.5-0.4-0.9-0.5c-0.4,0.5-0.9,1-1.3,1.6c-0.9,0.9-1.9,1.8-3,2.6c-0.1,0-0.2,0-0.3,0c-0.3,0.4-0.8,0.6-1.3,0.9  c-0.1,0.1-0.2,0.2-0.2,0.2c-0.1,0-0.2,0-0.3,0c-0.2,0.1-0.4,0.3-0.6,0.4c0,0,0-0.1,0-0.1c-0.3,0.3-0.7,0.5-1.2,0.5  c-0.2,0.1-0.3,0.3-0.5,0.4c0.2,0,0.4,0,0.6,0.1c0,0.1,0.1,0.2,0.2,0.3c0.1,0,0.3,0,0.5,0c0.2,0.2,0.4,0.3,0.7,0.3  c0,0.1,0.1,0.2,0.2,0.2c0.2,0.1,0.6,0,0.7,0.2c0.4,0,0.7,0.3,1.1,0.4c0.2,0.2,0.5,0.2,0.8,0.3c0.2,0.1,0.4,0.2,0.7,0.2  c0.1,0.3,0.4,0.2,0.6,0.2c0,0.1,0,0.1,0.1,0.2c0.2,0,0.4,0,0.5,0c0,0.1,0,0.2,0,0.2c0.8,0.2,1.2,1,1.7,1.6c0.2,0.6,0.7,1.1,0.9,1.7  c0.9,1.4,1.6,2.9,2.6,4.3c0.1,0.2,0.2,0.4,0.3,0.6c0.2,0.5,0.4,1,0.3,1.5c-0.1,0.2-0.2,0.4-0.3,0.7c-0.1,0.1-0.2,0.2-0.3,0.4  c-0.3,0.1-0.6,0.3-0.9,0.5c-0.4,0.1-0.7,0.1-1.1,0c-0.3-0.2-0.7-0.3-0.9-0.6c-0.3-0.5-0.6-1-0.9-1.5c-0.1,0-0.2-0.1-0.2-0.2  c0-0.1,0-0.2,0-0.3c-0.1-0.1-0.2-0.3-0.3-0.5c-0.2-0.3-0.4-0.6-0.6-0.9c-0.1-0.2-0.3-0.3-0.4-0.5c0,0.2-0.1,0.4-0.1,0.6  c0,0-0.1,0.1-0.2,0.1c-0.1,0.4-0.3,0.8-0.4,1.2c-0.1,0.1-0.2,0.2-0.2,0.2c-0.1,0.2,0.1,0.7-0.3,0.7c0,0.2,0,0.3,0,0.5  c-0.3,0.1-0.1,0.7-0.5,0.7c0.1,0.1,0.1,0.1,0.2,0.2c-0.1,0-0.2,0-0.2,0c-0.1,0.5-0.3,1-0.5,1.4c0,0.3-0.1,0.6-0.3,0.8  c-0.1,0.4-0.4,0.7-0.6,1c-0.2,0.1-0.3,0.2-0.5,0.3c-0.5,0-1,0-1.5,0c-0.3-0.2-0.6-0.4-0.9-0.7c-0.5-0.5-0.4-1.3-0.4-1.9  c0.3-0.2,0.3-0.6,0.3-0.9c0,0,0.1,0,0.2,0c0-0.7,0.5-1.3,0.6-2c0.4-0.1,0.2-0.6,0.3-0.9c0.1-0.1,0.2-0.2,0.2-0.2c0-0.2,0-0.4,0-0.6  c0.3,0,0.2-0.4,0.3-0.6c0.1-0.1,0.2-0.2,0.2-0.2c0.1-0.2-0.1-0.6,0.3-0.7c0-0.2,0-0.4,0.1-0.7c0.3-0.1,0.2-0.4,0.3-0.6  c0.2-0.5,0.5-1.1,0.5-1.6c-0.8-0.3-1.6-0.5-2.3-0.8c-0.1,0-0.3,0-0.4-0.1c-0.3-0.2-0.6-0.3-0.9-0.3c-0.1-0.3-0.5-0.2-0.8-0.3  c-0.1-0.5-0.8,0-1-0.5c-0.2,0-0.3,0-0.5-0.1c-0.2-0.2-0.6-0.2-0.8-0.3c-0.3-0.3-0.9-0.2-1.3-0.2c0,0.8-0.3,1.6-0.3,2.5  c0,3.7,0,7.4,0,11.1c0,0.4-0.2,0.7-0.3,1.1c-0.3,0.3-0.5,0.6-0.9,0.7c-0.6,0.1-1.2,0.1-1.7-0.1c-0.2-0.1-0.3-0.3-0.5-0.4  c-0.1-0.2-0.3-0.4-0.4-0.7c-0.1-0.7,0-1.5-0.1-2.2c-0.2-0.8,0.1-1.7-0.2-2.5c-0.9,0.7-1.9,1.4-2.8,2.2c-0.6,0.6-1.4,1-1.9,1.6  c-0.3,0.3-0.6,0.5-1,0.7c-0.6,0.4-1.3,0.2-2,0.2c0.1-0.1,0.2-0.2,0.2-0.2c-0.1,0-0.3,0-0.4,0c-0.2-0.2-0.3-0.3-0.5-0.5  c-0.2-0.2-0.2-0.6-0.4-0.8c0-0.3,0-0.6,0-0.8c0.4-1,1.4-1.6,2.2-2.4c1.4-1.2,2.7-2.4,4.2-3.5c0.7-0.4,1.3-1,1.8-1.6  c0.1-0.2,0.2-0.4,0.3-0.5c0-0.1,0.1-0.2,0.2-0.2c0.1-0.4,0.2-0.7,0.3-1.1c0.1-0.7,0.1-1.5-0.2-2.2c-0.1-0.9,0-1.8,0-2.7  c-0.2,0-0.5-0.1-0.7-0.2c-0.7,0.1-1.3-0.3-1.9-0.3c-0.3,0-0.5-0.2-0.7-0.2c-0.2-0.1-0.5,0-0.6-0.3c-0.2,0-0.3,0-0.5,0  c-0.1-0.3-0.5-0.2-0.7-0.3c-0.3-0.3-0.8-0.4-1.1-0.6c-0.5-0.2-0.9-0.6-1.5-0.7c0.1,0,0.2,0,0.2,0c-0.7-0.2-1.1-0.8-1.8-1.1  c-0.2-0.2-0.4-0.4-0.6-0.5c0,0.2,0,0.4,0,0.6c0.3,0.1,0.2,0.5,0.2,0.7c0.1,0.7,0,1.4,0.3,2c0,0.5,0,1,0.2,1.5  c0.2,0.6,0,1.2,0.2,1.7c0.2,0.6,0.2,1.3,0.1,1.9c-0.2,0.3-0.3,0.6-0.3,1c-0.4,0.2-0.4,0.7-0.7,1c-0.3,0.3-0.4,0.7-0.7,1.1  c-0.3,0.5-0.5,1.1-0.8,1.5c-0.3,0.5-0.6,1-0.9,1.5c-0.2,0.3-0.3,0.6-0.4,0.9c0,0-0.1,0.1-0.2,0.2c-0.3,0.6-0.7,1.1-1.1,1.5  c-0.5,0.2-1.1,0.4-1.6,0.2c-0.2-0.2-0.5-0.3-0.8-0.4c-0.2-0.2-0.4-0.4-0.6-0.6c-0.1-0.5-0.1-1,0-1.4c0-0.2,0.1-0.3,0.2-0.4  c0-0.1,0.1-0.2,0.1-0.3c0.3-0.3,0.4-0.8,0.7-1.1c0.1-0.1,0.1-0.3,0.2-0.4c0.1-0.1,0.2-0.3,0.2-0.5c0.1,0,0.2-0.1,0.2-0.2  c0-0.1,0-0.3,0-0.3c0.2-0.2,0.3-0.4,0.5-0.7c-0.4,0-0.8,0-1.2,0c-0.5,0.3-1.1,0.1-1.6,0.2c0,0-0.1,0.1-0.1,0.2  c-0.5,0.1-1,0.1-1.5,0.1c0,0-0.1,0.1-0.1,0.2c-0.5,0.1-1,0.1-1.5,0.1c0,0-0.1,0.1-0.1,0.2c-0.5,0.1-1.1,0.1-1.6,0  c-0.2,0-0.3,0-0.4-0.2c-0.6-0.4-1.1-1-1.1-1.8c0-0.3-0.1-0.7,0.2-0.9c0-0.1,0-0.2,0-0.3c0.3-0.2,0.6-0.5,0.9-0.6  c0.6-0.4,1.4-0.2,2.1-0.5c-0.1,0.1-0.2,0.2-0.3,0.3c0.5-0.4,1.2-0.3,1.7-0.5c0.4-0.1,0.9-0.1,1.3-0.2c0.4-0.3,0.9-0.2,1.4-0.2  c0-0.1,0-0.2,0-0.2c0.6-0.1,1.3,0.1,1.8-0.3c0.6-0.1,1.2,0,1.7-0.2c0-0.6,0.1-1.2-0.2-1.7c-0.2-0.5,0-1-0.2-1.5  c-0.2-0.6-0.1-1.2-0.3-1.8c-0.2-0.4-0.1-0.8-0.2-1.2c-0.2-0.3-0.2-0.7-0.3-1c-0.1,0-0.2-0.1-0.2-0.1c0.1-0.1,0.2-0.2,0.1-0.3  c0-0.7-1-0.7-1.3-0.2c-0.9,0.4-1.8,0.9-2.7,1.4c0.1,0,0.2,0.1,0.3,0.1c-0.1,0-0.3,0-0.4,0c-0.2,0.2-0.5,0.3-0.7,0.5  c-0.2,0.3-0.7,0.3-0.9,0.6c-0.1,0-0.2,0-0.3,0.1c-0.2,0.1-0.3,0.2-0.5,0.3c-0.3,0.3-0.7,0.3-1,0.5c-0.2,0.1-0.5,0.2-0.7,0.4  c-0.1,0-0.3,0.1-0.4,0.1c-0.3,0.2-0.6,0.4-0.9,0.6c-0.2,0.2-0.6,0.2-0.7,0.5c-0.1,0-0.3,0-0.3,0c-0.1,0.1-0.2,0.2-0.2,0.2  c-0.5,0.2-0.9,0.5-1.3,0.8c-0.2,0.1-0.5,0.1-0.6,0.3c-0.5,0-1.1,0.2-1.5-0.2c-1.1-0.5-1.6-2-0.8-3c0.4-0.6,1.1-0.8,1.7-1.2  c0.8-0.6,1.6-1,2.4-1.5c-0.2-0.2-0.4-0.2-0.6-0.2c-0.2-0.2-0.4-0.2-0.7-0.3c-0.2-0.3-0.7-0.1-0.9-0.4c-0.4-0.1-0.8-0.2-1.2-0.4  c-0.2-0.2-0.5-0.2-0.8-0.3c-0.2-0.2-0.5-0.3-0.7-0.3c-0.1-0.1-0.2-0.2-0.2-0.2c-0.2,0-0.3,0-0.5,0c-0.3-0.3-0.8-0.3-1.2-0.6  c-0.3-0.3-0.6-0.6-0.9-0.8c-0.1-0.7-0.2-1.5,0.3-2.1c0.2-0.3,0.5-0.5,0.9-0.7c0.5,0,1.1-0.2,1.5,0.1c0.2,0,0.3,0,0.5,0  c0.1,0.1,0.2,0.2,0.2,0.2c1,0.2,1.9,0.7,2.9,1c0.3,0.1,0.7,0.2,1,0.4c0.2,0,0.3,0.1,0.5,0.1c0.1,0.3,0.5,0.2,0.8,0.3  c0.2,0.2,0.5,0.2,0.7,0.3c0.2,0.2,0.5,0.2,0.9,0.3c0.1,0.3,0.4,0.2,0.6,0.3c0.2,0.4,0.8,0.1,1,0.5c0.4,0,0.9,0.1,1.3,0  c0.4-0.2,0.7-0.4,1.1-0.6c0,0,0-0.1,0-0.2c0.2,0,0.5-0.1,0.7-0.2c-0.1,0-0.2-0.1-0.2-0.1c0.1,0,0.3,0,0.4,0  c0.2-0.1,0.3-0.2,0.5-0.3c0.2-0.1,0.4-0.2,0.6-0.4c0.2-0.1,0.4-0.2,0.5-0.3c0.1-0.1,0.3-0.1,0.4-0.2c0.4-0.3,0.8-0.5,1.2-0.8  c-0.1-0.1-0.2-0.2-0.3-0.4c0-0.3-0.1-0.6-0.3-0.8c0-0.3-0.2-0.6-0.3-0.9c-0.1-0.3-0.1-0.7-0.3-1c-0.1-0.3,0.1-0.7-0.3-0.9  c-0.2-2.2-0.2-4.4,0-6.6c-0.5,0.1-0.8,0.6-1.3,0.8c-1.4,1.1-2.7,2.2-4.1,3.3c-0.5,0.5-1.2,0.8-1.9,1c-0.7,0.1-1.4,0.1-2.1,0  c-2.4,0-4.8,0-7.2,0c-0.4,0-0.7-0.2-1-0.4c-0.4-0.5-0.7-1.2-0.6-1.9c0.2-0.2,0.2-0.4,0.3-0.7c0.1-0.1,0.3-0.3,0.4-0.4  c0.2-0.2,0.5-0.1,0.6-0.4c1-0.1,2-0.1,3-0.1c0.2,0,0.5,0.1,0.6-0.2c0.4,0,0.8,0,1.2-0.2c-0.4-0.3-0.7-0.7-1-1.1  c-0.4-0.6-1-1.1-1.3-1.8c0,0-0.1,0-0.2,0c0-0.1,0-0.2-0.1-0.2c-0.3-0.3-0.6-0.7-0.9-1.1c-0.4-0.5-0.9-1-1.2-1.6  c-0.1-0.5-0.1-1.1,0-1.6c0.5-0.8,1.4-1.4,2.4-1.2c0.2,0.3,0.6,0.3,0.9,0.6c0.5,0.5,1,1.2,1.5,1.7c0.4,0.4,0.8,0.9,1.1,1.4  c0.8,0.9,1.5,1.8,2.3,2.7c0.3,0.6,0.9,1,1.2,1.6c0.4,0.1,0.7-0.2,1-0.3c-0.1,0-0.2,0-0.3,0c0.6-0.3,1-0.9,1.6-1.3  c1.4-1.2,2.9-2.4,4.2-3.8c-0.3-0.3-0.7-0.6-1-0.9c-0.1,0-0.2,0-0.4-0.1c0-0.1-0.1-0.2-0.2-0.2c-1.2-0.6-2.3-1.4-3.4-2  c-0.3-0.3-0.7-0.4-1-0.6c0-0.2-0.2-0.2-0.4-0.3c-0.4-0.2-0.8-0.4-1.1-0.7c-0.5-0.2-1-0.6-1.5-0.8c-0.2-0.1-0.3-0.2-0.4-0.3  c-0.1,0-0.3,0-0.4,0c-0.1-0.3-0.5-0.3-0.7-0.4c-0.4-0.3-0.8-0.6-1.2-0.8c-0.2-0.2-0.4-0.4-0.6-0.6c-0.1-0.2-0.1-0.4-0.3-0.5  c0-0.4,0-0.8,0-1.2c0.2-0.1,0.2-0.4,0.3-0.6c0.4-0.5,1-1,1.7-0.9c0.5-0.1,0.8,0.4,1.3,0.2c-0.1,0-0.2,0.1-0.2,0.1  c0.2,0.1,0.4,0.2,0.6,0.3c0.2,0.2,0.5,0.3,0.8,0.4c0.6,0.3,1.2,0.7,1.8,1c0.1,0.1,0.2,0.2,0.4,0.2c0.1-0.3,0-0.7-0.1-1  c-0.3-0.4-0.1-1-0.2-1.5c-0.1,0-0.2-0.1-0.2-0.1c0-0.7,0-1.3-0.2-1.9c-0.2-0.5,0-1.1-0.2-1.6c-0.4-1-0.2-2.2,0.7-2.8  c0.6-0.3,1.2-0.4,1.8-0.3c0.1,0.2,0.3,0.3,0.5,0.3c0.1,0.1,0.2,0.2,0.3,0.3c0.1,0.2,0.2,0.4,0.3,0.5c0,0.1,0,0.3,0.1,0.4  c0.6,0.3-0.1,1.3,0.5,1.6c0,0.5,0,1,0.2,1.5c0.2,0.5,0.1,1.1,0.3,1.6c0.2,0.5,0.1,1.1,0.3,1.6c0.2,0.6,0.1,1.2,0.3,1.8  c0.2,0.4-0.1,1.1,0.3,1.4c0,0.4,0.1,0.7,0.2,1.1c0.6,0.4,1.2,0.7,1.8,1.1c0.6,0.5,1.5,0.7,2.1,1.3c0.1,0,0.3,0,0.3,0  c0.1,0.1,0.2,0.2,0.2,0.3c0.1,0,0.2,0,0.3,0c0.1,0.3,0.7,0.2,0.7,0.6c1.2-1.7,2.7-3.1,4.4-4.4c0.1-0.1,0.2-0.1,0.3-0.2  c0.9-0.7,2-1.2,3-1.7c0.2-0.1,0.6,0,0.6-0.3c0,0.1,0.1,0.2,0.1,0.3c0-0.2,0-0.3-0.1-0.5c-0.5,0-0.9-0.3-1.4-0.4  c-0.3-0.2-0.7-0.3-1-0.5c-0.2,0-0.3,0-0.5,0c0,0-0.1-0.1-0.1-0.2c-0.7-0.1-1.2-0.5-1.9-0.7c-0.1-0.2-0.4-0.2-0.6-0.2  c-0.1-0.3-0.6-0.2-0.8-0.3c0.1-0.1,0.1-0.1,0.2-0.2c-0.2,0-0.4-0.1-0.6-0.1c-0.7-0.4-1.3-0.8-1.6-1.5c-0.6-1.1-1.2-2.2-1.9-3.2  c-0.1-0.3-0.2-0.6-0.4-0.9c-0.5-0.8-0.9-1.6-1.4-2.3c-0.5-0.6-0.6-1.4-0.5-2.2c0.2-0.3,0.4-0.5,0.6-0.8c0.2-0.1,0.4-0.2,0.7-0.4  c0.4-0.2,0.8-0.2,1.2-0.2c0.3,0.3,0.8,0.4,1,0.7c0.2,0.4,0.5,0.7,0.7,1.1c0.1,0.1,0.2,0.2,0.2,0.2c0.1,0.2,0.2,0.5,0.4,0.7  c0.1,0.1,0.2,0.3,0.3,0.5c0.1,0.2,0.2,0.3,0.3,0.5c0.1,0.3,0.3,0.6,0.7,0.6c-0.1-0.5,0.3-0.9,0.4-1.4c0.2-0.3,0.1-0.7,0.4-0.9  c0-0.2,0-0.3,0.1-0.5c0.4-0.3,0.3-1.1,0.8-1.3c-0.1,0-0.2-0.1-0.3-0.1c0.1,0,0.2,0,0.3-0.1c0-0.1,0-0.3,0-0.5  c0.1,0,0.2-0.1,0.3-0.2c0-0.2,0-0.4,0-0.5c0.3-0.1,0.2-0.4,0.3-0.6c0.1-0.7,0.7-1.1,1.1-1.5c0.4,0,0.8,0,1.2,0  c0.6-0.1,1,0.6,1.4,0.9c0.3,0.7,0.1,1.5-0.1,2.3c0,0-0.1,0.1-0.2,0.1c0,0.5-0.3,0.9-0.5,1.3c-0.1,0.3-0.2,0.7-0.4,1  c0,0.2,0,0.3,0,0.5c-0.1,0-0.2,0.1-0.3,0.2c0,0.1,0,0.3,0,0.5c-0.2,0.2-0.3,0.5-0.3,0.8c-0.1,0.1-0.2,0.2-0.2,0.2  c-0.1,0.3,0.1,0.7-0.3,0.7c0,0.2,0,0.5-0.1,0.7c-0.1,0-0.2,0-0.2,0c0,0.2,0,0.4-0.1,0.6c-0.3,0.6-0.6,1.2-0.6,1.9  c0.5,0.1,0.9,0.3,1.4,0.5c0.3,0.1,0.6,0.2,0.9,0.4c0.3,0.1,0.7-0.1,0.8,0.3c0.7,0.1,1.3,0.5,1.9,0.6c0.2,0.3,0.7,0.1,0.9,0.5  c0-0.1,0-0.2,0.1-0.2c0.2,0.4,0.8,0.2,1.1,0.5c0.3,0,0.6,0,0.9,0c0-1.2,0-2.4,0-3.6c0.4-0.5,0.2-1.2,0.2-1.7  C218.2,6.6,218.1,3.7,218.2,0.7 M218.4,24.6c0,0-0.1,0.1-0.1,0.1c-0.4,0.1-0.8,0-1.2,0.2c-0.3,0.2-0.7,0.1-1,0.4  c-0.1,0-0.3,0-0.4,0.1c0,0.3-0.4,0.2-0.6,0.2c0,0.1,0,0.2,0,0.2c-0.2,0-0.5,0-0.6,0.3c-0.9,0.4-1.6,1.1-2.3,1.7  c-0.6,0.6-1.1,1.3-1.6,2.1c0,0.1-0.1,0.2-0.1,0.3c-0.4,0.4-0.4,1-0.8,1.5c-0.5,1.8-1,3.7-0.6,5.5c0,0.4,0,0.8,0.3,1.2  c0,0.2,0,0.5,0.1,0.7c0.4,0.2,0.1,0.8,0.5,1c0.1,0.2,0,0.5,0.3,0.6c0.1,0.2,0.1,0.4,0.3,0.6c0.1,0.1,0.2,0.3,0.3,0.4  c0.2,0.3,0.4,0.6,0.5,0.9c0-0.1,0-0.2,0.1-0.2c0.1,0.2,0.2,0.5,0.4,0.6c0.6,0.6,1.1,1.2,1.8,1.7c0.3,0.2,0.7,0.6,1.1,0.7  c0.1,0.1,0.2,0.2,0.2,0.2c0.1,0,0.3,0,0.3,0c0,0.3,0.3,0.2,0.6,0.3c0.2,0.3,0.7,0.1,0.9,0.5c0.2,0,0.4,0.1,0.6,0.2  c0.4,0.2,0.9,0.1,1.3,0.3c1.1,0.1,2.3,0,3.4,0c0.8-0.1,1.6-0.4,2.4-0.6c0.1-0.2,0.4-0.2,0.6-0.3c0.1-0.3,0.6-0.2,0.7-0.5  c0.2-0.1,0.5,0,0.6-0.3c0.1,0,0.2-0.1,0.3-0.1c0.2-0.2,0.4-0.3,0.7-0.5c0.9-0.7,1.6-1.5,2.4-2.3c0.1-0.3,0.3-0.6,0.6-0.8  c0.2-0.4,0.4-0.7,0.6-1c0-0.1,0-0.3,0.1-0.4c0.1,0,0.2-0.1,0.2-0.2c0.1-0.3-0.1-0.7,0.3-0.8c0-0.3,0-0.7,0.3-0.9  c0-0.4,0-0.7,0.1-1.1c0.4-0.9,0.2-1.9,0.2-2.8c-0.2-0.5-0.3-1.1-0.3-1.6c-0.4-0.1-0.2-0.6-0.3-0.9c-0.1,0-0.2-0.1-0.2-0.2  c0-0.2,0-0.5-0.3-0.6c0-0.4-0.3-0.8-0.5-1.2c-1.3-2.1-3.2-3.9-5.6-4.8c-0.3-0.3-0.8-0.1-1-0.4c-0.3,0-0.6,0-0.9-0.2  c-0.4-0.2-0.9-0.1-1.3-0.2C220.3,24.5,219.3,24.6,218.4,24.6z"></path>	<path class="st0" d="M260.2-0.3c0.9-0.1,1.8,0,2.7-0.1c2.1,0,4.2,0,6.3,0c2.4,0.2,4.5,1.9,5.5,4.1c0.6,1.3,1.2,2.6,1.7,4  c1.1,2.4,2,4.9,3.1,7.3c0.6,1.6,1.3,3.1,2,4.7c0.2,0.6,0.7,1.1,0.6,1.7c0.1-0.1,0.1-0.1,0.2-0.2c0.1,0.3,0.1,0.6,0.2,0.9  c1.6,3.7,3.1,7.4,4.7,11c0.2,0.4,0.2,1,0.7,1.1c0-11.5,0-23,0-34.4c1.5-0.1,3.1,0,4.6-0.1c2.5,0,5,0,7.5,0v72.5c-1.8,0-3.5,0-5.3,0  c-0.7,0-1.3,0-1.9-0.2c-1.2-0.3-2.2-1-3.1-1.8c-1.2-1.1-1.6-2.8-2.3-4.1c-0.1-0.2-0.1-0.5-0.1-0.7c-0.1,0.1-0.1,0.2-0.2,0.2  c-0.1-0.6-0.3-1.1-0.6-1.6c-2.4-5.6-4.9-11.2-7.3-16.8c-0.1-0.3-0.4-0.5-0.3-0.8c0-0.2-0.1-0.3-0.2-0.5c0,0.1-0.1,0.2-0.1,0.3  c-0.2-1-0.7-1.8-1-2.7c-0.4-1.1-1-2.1-1.3-3.2c-0.1,0.1-0.1,0.1-0.1,0.2c0-0.7-0.4-1.3-0.7-1.9c-0.1,0-0.2-0.1-0.2-0.2  c0.1,0,0.2,0,0.3,0c-0.1-0.1-0.2-0.3-0.3-0.4c0-0.2-0.1-0.4-0.1-0.5c-0.1,0-0.2,0-0.3,0c0,11.6,0,23.1,0,34.7  c-0.8,0.1-1.6,0.1-2.4,0.1c-2.6,0-5.3,0-7.9,0c-1.4,0-2.9,0.1-4.3-0.1c0-8.4,0-16.8,0-25.2C260.2,31.1,260.2,15.4,260.2-0.3z"></path></g></svg>